<svg width="76" height="76" viewBox="0 0 76 76" fill="none" xmlns="http://www.w3.org/2000/svg">
<g filter="url(#filter0_d_2644_14167)">
<circle cx="38" cy="33" r="28" fill="#7AC23A"/>
</g>
<path d="M47.25 23.125C44.6875 20.5 41.1875 19 37.4375 19C29.8125 19 23.5625 25.25 23.5625 32.875C23.5625 35.375 24.25 37.75 25.4375 39.8125L23.5 47L30.8125 45.125C32.875 46.1875 35.125 46.8125 37.4375 46.8125C45.125 46.8125 51.5 40.5625 51.5 32.9375C51.5 29.1875 49.875 25.75 47.25 23.125ZM37.4375 44.4375C35.375 44.4375 33.375 43.875 31.5625 42.8125L31.1875 42.5625L26.8125 43.75L28 39.5L27.6875 39.0625C26.5625 37.1875 25.9375 35.0625 25.9375 32.875C25.9375 26.5625 31.125 21.375 37.5 21.375C40.5625 21.375 43.4375 22.5625 45.625 24.75C47.8125 26.9375 49.125 29.8125 49.125 32.9375C49.125 39.25 43.8125 44.4375 37.4375 44.4375ZM43.8125 35.8125C43.4375 35.625 41.75 34.8125 41.4375 34.6875C41.125 34.5625 40.875 34.5 40.625 34.875C40.4375 35.1875 39.75 36 39.5625 36.25C39.3125 36.4375 39.125 36.5 38.8125 36.3125C36.75 35.3125 35.4375 34.5 34.0625 32.1875C33.6875 31.5625 34.4375 31.625 35.0625 30.3125C35.1875 30.0625 35.125 29.875 35.0625 29.6875C35 29.5 34.25 27.8125 34 27.125C33.6875 26.4375 33.4375 26.5 33.1875 26.5C33 26.5 32.75 26.5 32.5625 26.5C32.3125 26.5 31.9375 26.5625 31.625 26.9375C31.3125 27.3125 30.4375 28.125 30.4375 29.8125C30.4375 31.5625 31.625 33.1875 31.8125 33.4375C32 33.625 34.25 37.125 37.75 38.625C39.9375 39.625 40.8125 39.6875 41.9375 39.5C42.5625 39.4375 43.9375 38.6875 44.25 37.875C44.5625 37.0625 44.5625 36.375 44.4375 36.25C44.375 36.0625 44.125 36 43.8125 35.8125Z" fill="white"/>
<defs>
<filter id="filter0_d_2644_14167" x="0" y="0" width="76" height="76" filterUnits="userSpaceOnUse" color-interpolation-filters="sRGB">
<feFlood flood-opacity="0" result="BackgroundImageFix"/>
<feColorMatrix in="SourceAlpha" type="matrix" values="0 0 0 0 0 0 0 0 0 0 0 0 0 0 0 0 0 0 127 0" result="hardAlpha"/>
<feOffset dy="5"/>
<feGaussianBlur stdDeviation="5"/>
<feColorMatrix type="matrix" values="0 0 0 0 0.215686 0 0 0 0 0.27451 0 0 0 0 0.352941 0 0 0 0.3 0"/>
<feBlend mode="normal" in2="BackgroundImageFix" result="effect1_dropShadow_2644_14167"/>
<feBlend mode="normal" in="SourceGraphic" in2="effect1_dropShadow_2644_14167" result="shape"/>
</filter>
</defs>
</svg>
